<svg xmlns="http://www.w3.org/2000/svg" viewBox="0 0 300 300"><defs><style>.cls-1{fill:#1e1e1e;}.cls-2{fill:#f1f2f2;}</style></defs><g id="Layer_2" data-name="Layer 2"><rect class="cls-1" width="300" height="300"/></g><g id="Layer_1" data-name="Layer 1"><path class="cls-2" d="M76,122.56H188.1a0,0,0,0,1,0,0v0a13.22,13.22,0,0,1-13.22,13.22H89.22A13.22,13.22,0,0,1,76,122.56v0a0,0,0,0,1,0,0Z" transform="translate(261.22 -2.87) rotate(90)"/><rect class="cls-2" x="138.66" y="73.13" width="27.65" height="13.22" transform="translate(304.97 159.47) rotate(-180)"/><rect class="cls-2" x="138.66" y="172" width="27.65" height="13.22" transform="translate(304.97 357.23) rotate(180)"/><path class="cls-2" d="M139.91,148.2H252a0,0,0,0,1,0,0v0a13.22,13.22,0,0,1-13.22,13.22H153.13a13.22,13.22,0,0,1-13.22-13.22v0A0,0,0,0,1,139.91,148.2Z" transform="translate(41.15 350.77) rotate(-90)"/><rect class="cls-2" x="110.65" y="197.64" width="78.7" height="13.22"/><rect class="cls-2" x="161.7" y="98.76" width="27.65" height="13.22"/><path class="cls-2" d="M19.19,119.41h169.7a0,0,0,0,1,0,0v0a13.22,13.22,0,0,1-13.22,13.22H19.19a0,0,0,0,1,0,0V119.41A0,0,0,0,1,19.19,119.41Z" transform="translate(230.06 21.98) rotate(90)"/><path class="cls-2" d="M97.43,28.26h65.05a0,0,0,0,1,0,0v0a13.22,13.22,0,0,1-13.22,13.22H97.43a0,0,0,0,1,0,0V28.26a0,0,0,0,1,0,0Z" transform="translate(259.91 69.74) rotate(-180)"/><polygon class="cls-2" points="166.74 62.45 186.48 28.26 147 28.26 166.74 62.45"/><path class="cls-2" d="M54.23,273.39v-40.5h9.15a12.3,12.3,0,0,1,6,1.22,7.05,7.05,0,0,1,3.13,3.55,14.64,14.64,0,0,1,1,5.53,17.68,17.68,0,0,1-.5,4.25,8.26,8.26,0,0,1-1.7,3.4,5.9,5.9,0,0,1-3.4,1.85l6.2,20.7h-3.7l-6-19.9H58v19.9Zm3.8-22.7h5.15a7.62,7.62,0,0,0,3.95-.85,4.72,4.72,0,0,0,2-2.5,12.31,12.31,0,0,0,.6-4.15,9.83,9.83,0,0,0-1.3-5.6c-.87-1.24-2.59-1.85-5.15-1.85H58Z"/><path class="cls-2" d="M86.28,273.84a8.24,8.24,0,0,1-4.43-1.08,6.33,6.33,0,0,1-2.55-3.57,21.88,21.88,0,0,1-.82-6.65v-7.3a21,21,0,0,1,.85-6.73,6.15,6.15,0,0,1,2.6-3.45,8.49,8.49,0,0,1,4.35-1,7.31,7.31,0,0,1,4.7,1.3,6.92,6.92,0,0,1,2.22,3.92,29.61,29.61,0,0,1,.63,6.73v2.6H82.13v5.05a18.41,18.41,0,0,0,.42,4.42,4.18,4.18,0,0,0,1.35,2.33,3.89,3.89,0,0,0,2.38.7,4.54,4.54,0,0,0,2-.43A3,3,0,0,0,89.7,269a9,9,0,0,0,.53-3.47v-2h3.55v1.6a10.87,10.87,0,0,1-1.65,6.32Q90.48,273.85,86.28,273.84Zm-4.15-17.35h8.1v-2.4a27.3,27.3,0,0,0-.25-3.93,4.62,4.62,0,0,0-1.08-2.5,3.46,3.46,0,0,0-2.62-.87,4.11,4.11,0,0,0-2.43.65,3.78,3.78,0,0,0-1.32,2.32,21.63,21.63,0,0,0-.4,4.78Z"/><path class="cls-2" d="M105.93,273.84a7.22,7.22,0,0,1-5-1.5,7.3,7.3,0,0,1-2.18-4.08,29.27,29.27,0,0,1-.52-5.82v-6.75a27.25,27.25,0,0,1,.65-6.58,6.53,6.53,0,0,1,2.32-3.82,7.81,7.81,0,0,1,4.73-1.25,8,8,0,0,1,4.7,1.15,5.65,5.65,0,0,1,2.15,3.25,19.75,19.75,0,0,1,.55,4.9v1.35h-3.4v-1.4a16,16,0,0,0-.38-3.95,3.3,3.3,0,0,0-1.25-2,4.19,4.19,0,0,0-2.32-.57,3.75,3.75,0,0,0-2.6.8,4.34,4.34,0,0,0-1.2,2.62,31.44,31.44,0,0,0-.3,4.88v8.1q0,4.35.85,6.12a3.28,3.28,0,0,0,3.3,1.78,3.67,3.67,0,0,0,2.55-.78,3.9,3.9,0,0,0,1.1-2.32,25.64,25.64,0,0,0,.25-3.85v-1.6h3.4v1.4a21.77,21.77,0,0,1-.55,5.12,6.29,6.29,0,0,1-2.13,3.5A7.38,7.38,0,0,1,105.93,273.84Z"/><path class="cls-2" d="M122.43,273.84a4,4,0,0,1-2.45-.73,4.43,4.43,0,0,1-1.53-2.1,9.29,9.29,0,0,1-.52-3.32v-23.2h3.65v22.4a5.36,5.36,0,0,0,.7,3.17,2.44,2.44,0,0,0,2.1.93,4.94,4.94,0,0,0,2.62-.83,12.23,12.23,0,0,0,2.48-2.07v-23.6h3.65v28.9h-3.65v-3.2a12.51,12.51,0,0,1-3.2,2.62A7.61,7.61,0,0,1,122.43,273.84Z"/><path class="cls-2" d="M139,273.39v-28.9h3.71v3.95a8.77,8.77,0,0,1,3.2-3.28,7.21,7.21,0,0,1,3.45-1h.3a1.64,1.64,0,0,1,.34.05v3.9a3.38,3.38,0,0,0-.84-.23,6.55,6.55,0,0,0-1-.07,6,6,0,0,0-3.08.8,7,7,0,0,0-2.42,2.55v22.2Z"/><path class="cls-2" d="M160.23,273.84a7.07,7.07,0,0,1-5.5-2.23,9.62,9.62,0,0,1-2.35-6l3-.9a8.79,8.79,0,0,0,1.56,4.82,4.26,4.26,0,0,0,3.5,1.53A3.83,3.83,0,0,0,163.4,270a4.2,4.2,0,0,0,1-3,5.53,5.53,0,0,0-.84-2.83,12.33,12.33,0,0,0-2.7-3l-3.9-3.4a13.5,13.5,0,0,1-2.95-3.3,7.46,7.46,0,0,1-1-4,6.67,6.67,0,0,1,.87-3.53,5.87,5.87,0,0,1,2.4-2.2,8,8,0,0,1,3.62-.77,6,6,0,0,1,5,2.12,9.24,9.24,0,0,1,1.86,5.48l-2.61.85a10.35,10.35,0,0,0-.59-3.23,4,4,0,0,0-1.38-1.87,3.65,3.65,0,0,0-2.12-.6,3.88,3.88,0,0,0-2.68.92,3.32,3.32,0,0,0-1,2.58,5,5,0,0,0,.5,2.3,8.6,8.6,0,0,0,1.85,2.25l4.1,3.65a30.32,30.32,0,0,1,2.29,2.25,10.45,10.45,0,0,1,1.8,2.67,8,8,0,0,1,.7,3.48,7.09,7.09,0,0,1-.92,3.77,6.12,6.12,0,0,1-2.58,2.35A8.55,8.55,0,0,1,160.23,273.84Z"/><path class="cls-2" d="M172.17,240.49v-5h3.65v5Zm0,32.9v-28.9h3.65v28.9Z"/><path class="cls-2" d="M186.32,273.39l-6.25-28.9h3.7l4.7,24.7,4.65-24.7h3.55l-6,28.9Z"/><path class="cls-2" d="M207.57,273.84a8.2,8.2,0,0,1-4.42-1.08,6.33,6.33,0,0,1-2.55-3.57,21.84,21.84,0,0,1-.83-6.65v-7.3a21.31,21.31,0,0,1,.85-6.73,6.24,6.24,0,0,1,2.6-3.45,8.54,8.54,0,0,1,4.35-1,7.28,7.28,0,0,1,4.7,1.3,6.93,6.93,0,0,1,2.23,3.92,29.68,29.68,0,0,1,.62,6.73v2.6h-11.7v5.05a17.83,17.83,0,0,0,.43,4.42,4.07,4.07,0,0,0,1.35,2.33,3.86,3.86,0,0,0,2.37.7,4.51,4.51,0,0,0,2-.43A3,3,0,0,0,211,269a9.07,9.07,0,0,0,.52-3.47v-2h3.55v1.6a10.87,10.87,0,0,1-1.65,6.32Q211.77,273.85,207.57,273.84Zm-4.15-17.35h8.1v-2.4a25.93,25.93,0,0,0-.25-3.93,4.55,4.55,0,0,0-1.07-2.5,3.49,3.49,0,0,0-2.63-.87,4.05,4.05,0,0,0-2.42.65,3.79,3.79,0,0,0-1.33,2.32,22.26,22.26,0,0,0-.4,4.78Z"/><path class="cls-2" d="M217.67,275.14v-2.85A15.44,15.44,0,0,0,221,272a3.25,3.25,0,0,0,1.85-1,4.29,4.29,0,0,0,.82-2.15,25.25,25.25,0,0,0,.2-3.6V232.89h3.8v32.55a21,21,0,0,1-.6,5.5,5.07,5.07,0,0,1-2.35,3.17,10.4,10.4,0,0,1-5.2,1Z"/><path class="cls-2" d="M240.57,273.84a7.1,7.1,0,0,1-5.5-2.23,9.68,9.68,0,0,1-2.35-6l3.05-.9a8.88,8.88,0,0,0,1.55,4.82,4.28,4.28,0,0,0,3.5,1.53,3.86,3.86,0,0,0,2.93-1.08,4.2,4.2,0,0,0,1-3,5.45,5.45,0,0,0-.85-2.83,11.93,11.93,0,0,0-2.7-3l-3.9-3.4a13.92,13.92,0,0,1-2.95-3.3,7.55,7.55,0,0,1-1-4,6.58,6.58,0,0,1,.88-3.53,5.87,5.87,0,0,1,2.4-2.2,8,8,0,0,1,3.62-.77,6,6,0,0,1,5,2.12,9.17,9.17,0,0,1,1.85,5.48l-2.6.85a10.05,10.05,0,0,0-.6-3.23,3.9,3.9,0,0,0-1.37-1.87,3.68,3.68,0,0,0-2.13-.6,3.85,3.85,0,0,0-2.67.92,3.29,3.29,0,0,0-1,2.58,5.12,5.12,0,0,0,.5,2.3,8.8,8.8,0,0,0,1.85,2.25l4.1,3.65a28.68,28.68,0,0,1,2.3,2.25,10.45,10.45,0,0,1,1.8,2.67,8,8,0,0,1,.7,3.48,7.19,7.19,0,0,1-.92,3.77,6.18,6.18,0,0,1-2.58,2.35A8.63,8.63,0,0,1,240.57,273.84Z"/></g></svg>